<?xml version="1.0" encoding="UTF-8"?>
<!DOCTYPE svg PUBLIC "-//W3C//DTD SVG 1.1//EN" "http://www.w3.org/Graphics/SVG/1.1/DTD/svg11.dtd">
<!-- Creator: CorelDRAW 2021 (64-Bit) -->
<svg xmlns="http://www.w3.org/2000/svg" xml:space="preserve" width="297mm" height="210mm" version="1.1" style="shape-rendering:geometricPrecision; text-rendering:geometricPrecision; image-rendering:optimizeQuality; fill-rule:evenodd; clip-rule:evenodd"
viewBox="0 0 29700 21000"
 xmlns:xlink="http://www.w3.org/1999/xlink"
 xmlns:xodm="http://www.corel.com/coreldraw/odm/2003">
 <defs>
  <style type="text/css">
   <![CDATA[
    .fil0 {fill:black}
   ]]>
  </style>
 </defs>
 <g id="Layer_x0020_1">
  <metadata id="CorelCorpID_0Corel-Layer"/>
  <g id="_2112288554304">
   <path class="fil0" d="M24448.36 6874.96l0 6957.22c0,332.26 36.76,593.74 161.75,811 293.12,509.49 1220.31,409.04 1536.06,104.38 152.23,-146.89 332.26,-496.08 332.26,-788.5l0 -1882.03c0,-239.72 -85.72,-413.83 -189.77,-550.35 -258.18,-338.73 -476.1,-145.64 -843.62,-636.65 -316.58,-422.92 -248.34,-773.49 60.19,-1181.87 97.66,-129.28 397,-337.91 613.71,-337.91 324.67,0 539.09,27.75 744.79,333.71 167.65,249.36 143.37,372.8 143.37,765.92 0,303.11 0,606.2 0,909.31 0,322.94 -21.16,578.45 -21.16,909.29l-3.57 1779.9c20.08,187.75 18.21,221.59 69.24,374.84 75.65,227.14 227.03,392.73 441.83,488.61 400.79,178.88 905.08,75.46 1257.32,-201.83 153.01,-120.43 371,-465.83 371,-728.63l0 -3764.09c0,-1042.56 -744.42,-1506.19 -1647.66,-1693.51 -228.73,-47.43 -741.64,-146.24 -974.52,-146.24l0 -1776.33c0,-112.62 -72.2,-286.43 -117.74,-368.63 -187.74,-339.1 -466.58,-540.66 -918.45,-540.66 -668.29,0 -1015.03,656.18 -1015.03,1163.05z"/>
   <path class="fil0" d="M869.96 10406.44l0 3362.3c0,343.65 13.34,695.41 151.41,905.94 285.25,434.86 1248.48,427.59 1586.06,6.82 132.9,-165.67 292.6,-452.4 292.6,-743.57l0 -1945.5c0,-190.54 -121.14,-378.96 -216.2,-481.61 -290.45,-313.73 -495.82,-247.64 -804.16,-591.54 -554.17,-618.06 66.74,-1841.35 1071.23,-1494.15 274.09,94.71 475.78,308.18 478.7,663.22l-0.9 3426.63c0,414.88 -34.47,741.75 96.21,1045.71 260.77,606.67 1181.42,503.72 1626.2,169.19 182,-136.87 392.25,-471.33 392.25,-686.23l0 -3996.69c0,-545.98 -391.7,-1024.8 -884.81,-1229.88 -56.44,-23.48 -94.16,-41.58 -163.27,-69.33 -121.06,-48.63 -217.86,-83.25 -344.94,-120.26 -612.25,-178.31 -1326.22,-161.52 -1939.48,11.29 -525.18,147.98 -879.24,460.66 -1141.76,930.61 -101.98,182.5 -199.14,558.59 -199.14,837.05z"/>
   <path class="fil0" d="M17195.09 14931.81c-48.43,0 -24.58,-7.17 -84.57,-21.16 -188.49,-392.82 359.13,-1564.61 500.55,-1867.84 63.41,-136.02 101.98,-248.04 169.11,-380.71 189,-373.5 345.4,-739.68 559.7,-1132.03 172.76,-316.25 394.79,-767.12 577,-1072.43 75.57,-126.58 132.17,-241.09 206.6,-364.35 72.28,-119.68 127.7,-227.51 200.76,-349.07 1030.72,-1715.49 1855.53,-3078.96 3127.22,-4697 287.8,-366.2 729.73,-875.97 1084.34,-1157.17 124.61,-98.81 249.77,-166.84 383.91,-102.48 115.04,493.78 -330.68,1461.28 -529.02,1902.84 -125.35,279.01 -851.61,1782 -1103.35,2195.51 -71.43,117.31 -122.66,232.15 -195.24,354.56l-603.07 1046.38c-140.74,235.17 -272.72,467.35 -420,700.76 -145.24,230.13 -275.74,448.72 -422.9,676.73 -622.93,965 -1099.08,1680.2 -1792.54,2605.94 -84.7,113.04 -161.52,202.71 -241.9,307.91l-501.02 598.58c-169.69,201.81 -683.58,755.03 -915.58,755.03zm-1882.03 3045.1c0,924.44 977.09,6.22 1221.21,-237.9 135.6,-135.59 255.41,-255.48 391.53,-390.9l1089.16 -1300.39 2457.86 -3505.46c54.72,-81.87 97.78,-158.25 156.38,-245.42l1795.61 -2983.51c257.38,-460.41 933.06,-1671.78 1116.91,-2076.19 79.08,-173.96 178.36,-331.61 265.1,-517.36l260.9 -542.64c375.42,-748.46 1460.94,-3168.03 1198.29,-3799.33 -315.53,-758.33 -2364.05,1812.5 -2633.32,2173.96l-347.9 455.69c-644.56,784.73 -1705.15,2445.64 -2277.4,3305.25 -574.45,862.88 -1279.61,2087.66 -1796.29,2982.84 -96.51,167.16 -179.11,335.6 -279.91,502.52l-426.02 779.33c-47.7,96.36 -83.1,176.78 -136.82,264.97 -104.7,171.96 -169.86,356.19 -274.89,528.68 -99.8,163.89 -176.33,340.4 -264.9,517.53l-763.29 1647.4c-157.83,376.79 -316.2,738.48 -448.23,1137.8 -113.31,342.77 -303.98,877.83 -303.98,1303.13z"/>
   <path class="fil0" d="M11231.77 14974.09c714.14,0 1289.95,-492 1289.95,-1226.48l0 -4398.49c205.13,0 634.39,34.92 634.39,-359.5 0,-458.14 -376.24,-401.77 -613.24,-401.77l0 -1247.66c0,-544.26 -726.28,-571.78 -798.96,-58.82 -45.61,322.12 86.54,799.41 -394.13,1128.42 -163.27,111.75 -357.28,157.98 -625.45,156.95 -496.68,-1.84 -1136.92,-124.83 -1136.92,380.59 0,210.08 164.14,366.4 342.17,414.06 120.54,32.24 243.1,-24.08 343.5,37.11 101.43,61.84 114.87,130.63 113.39,288.4 -9.44,1020.63 -0.55,2045.68 -0.55,3066.81 0,473.27 -28.84,1069.08 51.08,1471.47 80.9,407.49 319.62,748.91 794.77,748.91z"/>
   <path class="fil0" d="M13325.28 8947.33c0,310.41 242.59,424.05 529.57,422.05 357.03,-2.5 274.01,324.27 274.01,677.58 0,641.44 0,1282.88 0,1924.32 0,615.99 -31.97,1319.49 -0.12,1924.47 50.87,966.45 586.36,1248.83 1359.5,978.64 280.51,-98.03 491.13,-281.61 621.63,-541.44 58.72,-116.91 133.63,-293.72 133.63,-458.46l0 -4525.37c167.76,0 388.58,20.21 523.95,-89.31 249.61,-201.98 88.96,-671.96 -185.6,-671.96l-317.2 0 0 -1353.39c0,-77.65 -64.84,-185.4 -113.29,-225.06 -191.69,-156.95 -527.62,-110.84 -627.6,118.54 -67.09,153.9 -31.42,324.44 -41.29,529.7 -15.38,320.59 -187.49,608.39 -392.7,749.21 -438.31,300.74 -1231.2,71.23 -1524.37,188.49 -75.26,30.1 -131.23,63.47 -173.84,122.21 -37.66,51.88 -66.28,143.86 -66.28,229.78z"/>
   <path class="fil0" d="M6833.28 9539.44l0 4398.49c0,927.32 726.01,1209.15 1477.35,927.52 460.43,-172.61 806.5,-557.9 806.5,-1096.71l0 -4187.01c0,-712.52 -1014.53,-1414.98 -1746.56,-858.41 -33.29,25.3 -39.81,34.19 -69.36,57.52 -183.07,144.61 -467.93,529.37 -467.93,758.6z"/>
   <path class="fil0" d="M6854.44 7001.83c0,313.91 141.39,616.82 300.89,777.59 381.91,384.96 863.97,471.55 1360.97,249.89 590.64,-263.4 878.22,-1222.31 321.07,-1783.91 -790.72,-797.01 -1982.93,-190.16 -1982.93,756.43z"/>
  </g>
 </g>
</svg>
