<?xml version="1.0" encoding="UTF-8"?>
<!DOCTYPE svg PUBLIC "-//W3C//DTD SVG 1.1//EN" "http://www.w3.org/Graphics/SVG/1.1/DTD/svg11.dtd">
<!-- Creator: CorelDRAW 2021 (64-Bit) -->
<svg xmlns="http://www.w3.org/2000/svg" xml:space="preserve" width="297mm" height="210mm" version="1.1" style="shape-rendering:geometricPrecision; text-rendering:geometricPrecision; image-rendering:optimizeQuality; fill-rule:evenodd; clip-rule:evenodd"
viewBox="0 0 29700 21000"
 xmlns:xlink="http://www.w3.org/1999/xlink"
 xmlns:xodm="http://www.corel.com/coreldraw/odm/2003">
 <defs>
  <style type="text/css">
   <![CDATA[
    .fil0 {fill:black}
   ]]>
  </style>
 </defs>
 <g id="Layer_x0020_1">
  <metadata id="CorelCorpID_0Corel-Layer"/>
  <path class="fil0" d="M2425.72 9284.15c0,-752.61 225.55,-1285.67 741.13,-1689.36 90.08,-70.54 181.49,-129.91 280.89,-182.06 912.31,-478.77 2099.76,-70.08 2519.29,934.22 223.27,534.49 215.05,1170.55 2.66,1703.47 -173.83,436.18 -479.88,793.08 -900.75,1008.92 -92.7,47.55 -246.17,102.37 -351.38,130.87l-421.42 62.36c-471.04,19.52 -1000.57,-233.12 -1325.75,-584.14 -322.86,-348.53 -544.67,-896.01 -544.67,-1384.28zm-1774.67 -115.73c0,598.62 136.86,1084.61 305.66,1507.58 167.18,418.95 435.97,786.88 731.17,1082.06 1062.11,1062.08 2746.62,1353.74 4094.01,747.26 822.11,-370.04 1439.35,-980.06 1813.24,-1813.24 615.01,-1370.36 277.86,-3011.13 -699.03,-3987.93 -149.69,-149.66 -288.02,-278.39 -469.65,-398.38 -194.04,-128.23 -326.21,-216.81 -553.43,-314.62 -2510.78,-1080.78 -5221.97,540.21 -5221.97,3177.27z"/>
  <path class="fil0" d="M18609.78 11232.4l-906.61 0 0 -1408.13 1118.81 0c155.83,0 340.92,98.47 420.21,177.76 258.47,258.47 379.84,1230.37 -632.41,1230.37zm38.59 -2796.98l-945.2 0 0 -1195.98 906.61 0c299.02,0 540.11,222.77 540.11,520.82 0,199.24 -7.22,337.78 -140.23,496.35 -70.1,83.6 -216.48,178.81 -361.29,178.81zm-2662 4205.14c0,44.45 13.44,57.87 57.87,57.87l2411.23 0c764.57,0 1450.55,-155.34 1906.1,-466.53 546.95,-373.64 813.74,-920.35 813.74,-1597.46 0,-717.6 -422.9,-1409.34 -1080.21,-1562.46 75.84,-113.28 221.43,-84.76 532.53,-547.71 324.27,-482.61 354.14,-1297.63 47.46,-1806.95 -389.37,-646.56 -1206.87,-943.9 -1930.28,-943.9l-2758.44 0 0 6867.14z"/>
  <path class="fil0" d="M24608.88 11232.4l-540.12 0 0 -3992.96c707.92,0 1519.04,-82.57 2059.48,506.08 303.91,331.02 486.79,832.68 486.79,1287.86 0,689.85 -38.01,1219.1 -544.77,1731.42 -324.46,328.04 -814.88,467.6 -1461.38,467.6zm-2256.89 1408.16c0,44.45 13.42,57.87 57.87,57.87l2295.46 0c599.34,0 1099.83,-80.79 1545.79,-228.88 215.6,-71.61 425.61,-169.64 608.67,-278.66 1121.16,-667.66 1529.89,-1776.6 1529.89,-3041.77 0,-683.88 -202.91,-1462.58 -551.28,-1975.66 -626.2,-922.17 -1709.24,-1400.04 -2824.42,-1400.04l-2661.98 0 0 6867.14z"/>
  <path class="fil0" d="M8559.83 9129.84c0,958.15 240.43,1783.99 833.75,2464.79 41.22,47.28 50.17,68.65 96.6,115.58 208.92,211.13 355.97,340.59 608.93,509.91 169.62,113.53 383.94,226.78 582.38,304.93 1015.96,400.18 2323.17,389.23 3285.91,-128.82 60.54,-32.58 95.26,-55.15 160.76,-89.99 175.09,-93.11 442.13,-281.21 590.08,-413.01l265.08 -236.44 -209.26 -311.56c-42.38,-57.3 -68.14,-97.63 -110.79,-159.28 -42.88,-61.97 -69.17,-93.25 -111.96,-158.09 -42.29,-64.04 -399.98,-587.85 -455.32,-624.9 -70.26,47.05 -135.97,128.18 -214.69,190.4 -601.04,475.14 -1301.62,799.35 -2127.41,589.24 -836.35,-212.79 -1419.39,-1043.26 -1419.39,-1859.87 0,-416.25 -3.42,-631.14 167.96,-1028 95.64,-221.5 208.92,-381.09 367.33,-539.3 86.14,-86 137.45,-138.11 236.15,-207.51 627.15,-440.94 1505.46,-410.62 2186.56,-83.68 386.56,185.55 417.82,256.68 707.05,450.35l790.87 -1292.41c-68.69,-46 -147.18,-127.61 -220.13,-184.96 -85.6,-67.27 -157.25,-117.99 -246.61,-177.75 -495.67,-331.47 -1287.58,-601.79 -1944.49,-601.79 -884.19,0 -1301.23,78.6 -2044.99,462.68 -1024.44,529.02 -1774.37,1787.06 -1774.37,3009.48z"/>
  <path class="fil0" d="M13382.26 14646.7l-501.52 0 0 -462.95c304.54,0 771.59,-56.89 771.59,250.75 0,96.05 -110.52,212.2 -270.07,212.2zm-57.87 -617.28l-443.65 0 0 -443.66 385.79 0c138.93,0 308.64,66.64 308.64,192.91 0,156.38 -94.37,250.75 -250.78,250.75zm-617.26 771.59c324.23,0 787.66,53.02 978.85,-101.36 39.51,-31.92 63.36,-55.86 89.43,-103.48 131.78,-240.7 -36.59,-446.96 -219.54,-489.59 29.62,-40.41 192.91,-121.84 192.91,-327.91 0,-437.76 -678.49,-347.22 -1041.65,-347.22l0 1369.56z"/>
  <path class="fil0" d="M22120.51 14646.7l-347.21 0 0 -1060.94c287.64,0 562.6,-26.47 749.88,195.3 259.02,306.73 82.64,865.64 -402.67,865.64zm-520.82 -1157.38l0 1311.69 559.4 0c840.37,0 931.12,-1369.56 -77.15,-1369.56 -278.02,0 -482.25,-42.78 -482.25,57.87z"/>
  <path class="fil0" d="M766.79 14145.15c0,-581.26 591.04,-714.18 883.55,-439.87 262.87,246.56 251.02,960.7 -382.01,960.7 -278.97,0 -501.54,-250.18 -501.54,-520.83zm-173.61 -57.86c0,445.22 287.07,736.71 696.23,748.74 426.52,12.53 860.95,-449.78 651.87,-997.31 -31.51,-82.47 -75.87,-147.72 -137.22,-209.99 -468.88,-475.8 -1210.88,-107.99 -1210.88,458.56z"/>
  <path class="fil0" d="M5164.86 14087.29c0,838.55 944.77,914.96 1234.52,482.25l-100.81 -92.07c-57.19,36.84 -83.55,73.79 -162.72,117.88 -360.91,200.97 -797.38,-16.82 -797.38,-488.77 0,-475.5 510.15,-684.29 851.33,-426.97 55.91,42.14 18.68,40.39 93.84,60.46l120.21 -111.27c-241.09,-163.97 -246.95,-216.65 -583.16,-216.65 -349.56,0 -655.83,325.48 -655.83,675.14z"/>
  <path class="fil0" d="M18359.02 13913.68l19.28 0c175.52,0 285.56,138.2 289.34,308.64l-617.26 0c36.48,-156.61 116.2,-308.64 308.64,-308.64zm-482.24 385.81c0,533.62 666.42,715.39 925.9,327.91 -29.85,-40.71 -54.63,-49.16 -96.44,-77.16 -94.16,63.04 -147.5,135.03 -308.64,135.03 -205.64,0 -307.6,-138.59 -347.22,-308.64l637.7 1.14c150.51,2.39 153.17,14.6 153.17,-116.88 0,-667.29 -964.47,-655.51 -964.47,38.6z"/>
  <path class="fil0" d="M6997.37 13913.68c233.37,0 295.91,88.42 347.21,308.64l-617.26 0c3.37,-151.6 125.01,-308.64 270.05,-308.64zm-443.65 347.21c0,696.41 725.75,665.38 925.9,366.51l-93.09 -80.74c-165.45,113.42 -348.83,221.54 -555.66,54.34 -61.54,-49.76 -101.27,-122.3 -103.55,-224.37 876.06,0 821.99,63.75 769.8,-210.24 -54.75,-287.3 -316.51,-489.63 -646.84,-361.23 -78.37,30.46 -94.5,49.81 -147.72,103.05 -86.65,86.69 -148.84,187.62 -148.84,352.68z"/>
  <path class="fil0" d="M3853.14 13913.68l77.17 0c148.89,0 258.06,164.61 270.05,308.64l-617.26 0c3.21,-144.08 127.35,-308.64 270.04,-308.64zm-443.65 366.51c0,626.72 702.79,680.42 925.9,347.21l-93.09 -80.74c-109.58,75.03 -166.18,138.61 -331.29,138.61 -174.36,0 -324.15,-139.31 -327.91,-308.64l733 0c160.28,0 23.99,-602.32 -406.64,-614.21 -278.18,-7.68 -499.97,232.96 -499.97,517.77z"/>
  <path class="fil0" d="M10836.03 14685.27c-400.62,0 -329.79,-385.78 0,-385.78 119.65,0 188.02,30.14 289.34,38.57 0,181.44 -39.25,347.21 -289.34,347.21zm-347.22 -829.46c4.92,59.14 18.3,92.73 38.57,135.04 97.72,-22.77 413.36,-136.59 544.22,15.19 45.39,52.63 53.77,102.55 53.77,196.98 -109.15,-9.06 -733,-165.04 -733,308.65 0,276.67 253.3,308.64 443.66,308.64 144.99,0 203.84,-77.78 289.34,-135.04l0 115.74 173.61 0c0,-681.51 94,-1022.34 -501.53,-1022.34 -101.68,0 -239.77,44.1 -308.64,77.14z"/>
  <path class="fil0" d="M14057.42 13836.54c0,369.04 -83.02,983.77 347.21,983.77 315.71,0 226.08,-47.37 385.79,-154.33l0 135.03 173.61 0 0 -964.47c0,-68.58 -37.6,-57.87 -115.74,-57.87 -87.92,0 -58.49,136.85 -57.94,231.4 1.14,194.14 61.17,655.91 -231.41,655.91 -242.66,0 -330.44,-45.57 -328.19,-366.24 0.68,-96.56 -0.23,-193.13 0.34,-289.67 1.23,-210.44 31.47,-231.4 -115.8,-231.4 -44.45,0 -57.87,13.42 -57.87,57.87z"/>
  <path class="fil0" d="M2444.99 13932.98c0,-147.16 24.58,-154.31 -115.74,-154.31 -44.43,0 -57.87,13.42 -57.87,57.87l0 964.47 173.61 0 0 -597.99c0,-364.78 559.42,-391.07 559.42,0l0 597.99 173.6 0c0,-387.17 71.15,-886.24 -233.14,-1001.43 -218.01,-82.52 -383.14,-0.91 -499.88,133.4z"/>
  <path class="fil0" d="M7923.28 13932.98c0,-147.16 24.58,-154.31 -115.74,-154.31 -44.45,0 -57.87,13.42 -57.87,57.87l0 964.47 173.61 0c0,-267.49 -48.01,-672.92 82.45,-804.88 122.82,-124.28 476.96,-132.6 476.96,206.89l0 597.99 173.61 0c0,-393.67 75.73,-893.69 -244.62,-1009.27 -98.36,-35.47 -184.71,-37.16 -286.96,-4.64 -126.74,40.32 -157.15,113.43 -201.44,145.88z"/>
  <path class="fil0" d="M16912.3 13932.98c0,-161.95 27.16,-154.31 -154.33,-154.31l0 1022.34 154.33 0c0,-232.86 -40.17,-650.18 71.26,-777.47 166.3,-189.97 488.13,-123.21 488.13,160.21l0 617.26 173.61 0c0,-439.58 85.23,-904.28 -259.32,-1013.91 -280.16,-89.13 -410.8,103.75 -473.68,145.88z"/>
  <path class="fil0" d="M23567.24 14068.01c0,364.1 578.69,190.67 578.69,501.53 0,118.92 -233.21,186.22 -540.12,-19.3 -29.98,44.79 -61.38,76 -77.14,135.03 198.05,104.81 195.5,135.04 462.95,135.04 83.3,0 180.67,-40.96 227.01,-81.61 36.91,-32.37 100.91,-150.92 100.91,-207.74 0,-378.86 -578.69,-238.38 -578.69,-501.54 0,-82.2 100.95,-115.74 192.9,-115.74 100.11,0 221.75,60.69 289.35,96.46 30.39,-57.43 51.99,-64.5 57.87,-135.03 -320.72,-169.69 -713.73,-122.39 -713.73,192.9z"/>
  <path class="fil0" d="M15234.07 14048.71c0,399.73 578.69,201.82 578.69,520.83 0,118.92 -233.2,186.22 -540.09,-19.3 -29.98,44.79 -61.4,76 -77.17,135.03 198.08,104.81 195.5,135.04 462.95,135.04 192.75,0 327.92,-158.57 327.92,-289.35 0,-378.26 -578.69,-241.34 -578.69,-501.54 0,-82.2 100.95,-115.74 192.9,-115.74 100.11,0 221.75,60.69 289.35,96.46 30.39,-57.43 51.99,-64.5 57.87,-135.03 -173.49,-91.82 -457.42,-162.49 -613.66,-15.7 -41.22,38.71 -100.07,118.81 -100.07,189.3z"/>
  <path class="fil0" d="M19053.45 14068.01c0,349.2 578.69,232.3 578.69,462.95 0,202.98 -255.55,157.21 -369.4,118.64 -77.46,-26.27 -107.65,-63.23 -170.71,-80.06 -55.94,37.45 -59.49,39.89 -77.17,115.73 608.95,407.75 1020.7,-187.07 643.62,-392.85 -114.8,-62.65 -257.24,-75.66 -364.85,-136.94 -117.74,-67.05 -112.52,-241.8 126.31,-241.8 137.75,0 200.17,72.63 289.35,96.46 24.19,-45.7 44.74,-78.67 57.87,-135.03 -320.7,-169.69 -713.71,-122.39 -713.71,192.9z"/>
  <path class="fil0" d="M19998.63 14068.01c0,341.09 578.69,237.4 578.69,462.95 0,326.12 -539.16,38.83 -540.09,38.58 -38.92,28.5 -62.75,61.71 -77.17,115.73 516.68,345.99 937.82,-32.33 737.4,-312.97 -130.96,-183.36 -525.22,-136.26 -525.22,-323.59 0,-282.69 481.79,-38.7 482.25,-38.57 24.2,-45.7 44.75,-78.67 57.87,-135.03 -320.7,-169.69 -713.73,-122.39 -713.73,192.9z"/>
  <path class="fil0" d="M26576.43 14241.62l0 115.74c0,202.77 191.49,406.22 358.97,451.24 239.57,64.36 463.43,-26.63 566.94,-181.2l-92.07 -100.83c-61.01,42.33 -68.62,72.93 -132.07,108.17 -232.28,129.02 -524.13,-9.43 -537.57,-320.79 -8.52,-197.41 134.03,-400.27 337.35,-400.27 183.47,0 225.07,85.46 327.91,154.33l92.07 -100.84c-151.76,-235.89 -529.23,-282.94 -753.16,-58.73 -80.43,80.54 -168.37,181.97 -168.37,333.18z"/>
  <path class="fil0" d="M24608.88 13778.67l-135.03 0 0 154.31 135.03 0 0 617.26c0,272.71 207.49,270.07 347.22,270.07 70.08,0 67.66,-22.9 135.03,-38.6l0 -135.01c-366.03,30.46 -308.64,126.17 -308.64,-713.72l308.64 0c0,-188.6 40.74,-154.31 -308.64,-154.31 0,-331.61 36.75,-289.35 -173.61,-289.35l0 289.35z"/>
  <path class="fil0" d="M27791.68 13778.67l-135.01 0 0 154.31 135.01 0 0 617.26c0,247.49 174.52,270.07 347.21,270.07 70.09,0 67.67,-22.9 135.04,-38.6l0 -135.01c-366.01,30.46 -308.64,126.17 -308.64,-713.72l308.64 0c0,-188.6 40.74,-154.31 -308.64,-154.31 0,-331.61 36.77,-289.35 -173.61,-289.35l0 289.35z"/>
  <path class="fil0" d="M9003.51 13778.67l-135.03 0 0 154.31 135.03 0 0 617.26c0,247.49 174.5,270.07 347.22,270.07 70.06,0 67.64,-22.9 135.01,-38.6l0 -135.01c-366.01,30.46 -308.62,126.17 -308.62,-713.72l308.62 0c0,-188.6 40.76,-154.31 -308.62,-154.31 0,-331.61 36.75,-289.35 -173.61,-289.35l0 289.35z"/>
  <path class="fil0" d="M11607.62 14801.01l173.61 0 0 -1369.56c0,-44.45 -13.42,-57.87 -57.87,-57.87l-115.74 0 0 1427.43z"/>
  <path class="fil0" d="M9736.51 14801.01l154.31 0c0,-283.94 -44.29,-707.34 238.52,-822.42 170.67,-69.45 185.86,57.62 185.86,-199.92 -319.92,0 -283.69,128.38 -424.38,231.47l0 -231.47 -154.31 0 0 1022.34z"/>
  <path class="fil0" d="M25341.91 14801.01l154.31 0c0,-308.55 -50.88,-721.38 252.36,-827.84 162.65,-57.1 172.02,54.31 172.02,-194.5 -327.92,0 -278.71,124.73 -424.38,231.47l0 -231.47 -154.31 0 0 1022.34z"/>
  <path class="fil0" d="M16256.44 13836.54l0 964.47 173.61 0 0 -964.47c0,-84.74 -173.61,-84.74 -173.61,0z"/>
  <path class="fil0" d="M26132.78 13836.54l0 964.47 173.6 0 0 -964.47c0,-84.74 -173.6,-84.74 -173.6,0z"/>
  <path class="fil0" d="M23104.29 13836.54l0 964.47 173.6 0 0 -964.47c0,-84.74 -173.6,-84.74 -173.6,0z"/>
  <path class="fil0" d="M16237.14 13527.89c0,44.45 13.42,57.87 57.87,57.87l135.04 0 0 -173.61 -192.91 0 0 115.74z"/>
  <path class="fil0" d="M23104.29 13585.76l135.03 0c44.45,0 57.87,-13.42 57.87,-57.87l0 -115.74 -192.9 0 0 173.61z"/>
  <polygon class="fil0" points="26132.78,13585.76 26306.38,13585.76 26306.38,13412.15 26132.78,13412.15 "/>
 </g>
</svg>
